<svg width="40" height="40" viewBox="0 0 40 40" fill="none" xmlns="http://www.w3.org/2000/svg">
  <path d="M13.079 17.6641C12.8126 17.6641 12.5759 17.769 12.3983 17.9639C12.206 18.1588 12.1172 18.3987 12.1172 18.6836C12.1172 18.9684 12.206 19.1933 12.3983 19.4032C12.5907 19.5981 12.8126 19.703 13.079 19.703C13.3453 19.703 13.582 19.5981 13.7744 19.4032C13.9668 19.2083 14.0703 18.9684 14.0703 18.6836C14.0703 18.3987 13.9668 18.1588 13.7744 17.9639C13.582 17.754 13.3601 17.6641 13.079 17.6641Z" fill="rgba(255, 255, 255, 0.8)"></path>
  <path d="M21.3778 17.6406C21.1115 17.6406 20.8747 17.7456 20.6972 17.9405C20.5048 18.1354 20.416 18.3753 20.416 18.6601C20.416 18.945 20.5048 19.1699 20.6972 19.3798C20.8895 19.5747 21.1115 19.6796 21.3778 19.6796C21.6441 19.6796 21.8809 19.5747 22.0732 19.3798C22.2656 19.1849 22.3692 18.945 22.3692 18.6601C22.3692 18.3753 22.2656 18.1504 22.0732 17.9405C21.8957 17.7306 21.6589 17.6406 21.3778 17.6406Z" fill="rgba(255, 255, 255, 0.8)"></path>
  <path d="M26.9266 17.6641C26.6603 17.6641 26.4235 17.769 26.246 17.9639C26.0536 18.1588 25.9648 18.3987 25.9648 18.6836C25.9648 18.9684 26.0536 19.1933 26.246 19.4032C26.4383 19.5981 26.6603 19.703 26.9266 19.703C27.193 19.703 27.4297 19.5981 27.6221 19.4032C27.8144 19.2083 27.918 18.9684 27.918 18.6836C27.918 18.3987 27.8144 18.1588 27.6221 17.9639C27.4297 17.754 27.193 17.6641 26.9266 17.6641Z" fill="rgba(255, 255, 255, 0.8)"></path>
  <path d="M29.3791 10.25H10.617C9.18177 10.25 7.99805 11.4494 7.99805 12.9037V23.6533C7.99805 25.1076 9.18177 26.307 10.617 26.307H17.9857C17.9857 26.307 19.4062 30.25 19.9241 30.25C20.4419 30.25 21.9808 26.307 21.9808 26.307H29.3791C30.8143 26.307 31.998 25.1076 31.998 23.6533V12.9037C31.998 11.4494 30.8143 10.25 29.3791 10.25ZM14.9672 20.175C14.5973 20.5948 14.0202 20.7747 13.3988 20.7747C12.8365 20.7747 12.4222 20.6098 12.1263 20.3699H12.1115V20.6698H10.7058V14.4479H12.1115V16.8317H12.1411C12.5258 16.5019 13.0289 16.3969 13.6207 16.3669C14.1238 16.3519 14.6565 16.6668 14.982 17.0416C15.2927 17.4164 15.5295 18.0011 15.5295 18.6458C15.5295 19.3505 15.3519 19.7552 14.9672 20.175ZM18.0005 20.7298H16.5652C16.5652 20.7298 16.5652 17.4614 16.5652 16.8767C16.5652 15.9921 15.8698 15.8722 15.8698 15.8722V14.328C15.8698 14.328 17.8821 14.4479 18.0005 16.9217C18.0005 17.6263 18.0005 20.7298 18.0005 20.7298ZM23.638 19.5454C23.5196 19.8302 23.3421 20.0701 23.1053 20.295C22.8834 20.5049 22.617 20.6698 22.3211 20.7897C22.0252 20.9097 21.7144 20.9696 21.3889 20.9696C21.0634 20.9696 20.7527 20.9097 20.4715 20.7897C20.1756 20.6698 19.9093 20.5049 19.6873 20.295C19.4506 20.0701 19.273 19.8152 19.1546 19.5454C19.0363 19.2755 18.9771 18.9756 18.9771 18.6608C18.9771 18.346 19.0363 18.0611 19.1546 17.7762C19.273 17.5064 19.4506 17.2515 19.6873 17.0266C19.9241 16.8167 20.1756 16.6518 20.4715 16.5319C20.7675 16.4119 21.0782 16.3519 21.3889 16.3519C21.7144 16.3519 22.0252 16.4119 22.3211 16.5319C22.617 16.6518 22.8834 16.8167 23.1053 17.0266C23.3421 17.2515 23.5048 17.4914 23.638 17.7762C23.7564 18.0611 23.8156 18.346 23.8156 18.6608C23.8156 18.9756 23.7564 19.2605 23.638 19.5454ZM29.2903 20.16C29.2903 21.2545 29.0831 21.9142 28.6096 22.3789C28.0326 22.9337 27.2188 22.9636 26.5381 22.8737V21.7493C27.1152 21.8092 27.8994 21.4194 27.8994 20.6698V20.3849H27.8846C27.5591 20.8347 27.1004 20.9996 26.4641 20.9996C25.8871 20.9996 25.384 20.7897 25.0437 20.3849C24.7033 19.9801 24.5406 19.4404 24.5406 18.7657C24.5406 18.0011 24.7329 17.4014 25.1029 16.9516C25.4876 16.5019 26.0202 16.292 26.6417 16.292C27.1892 16.292 27.5443 16.4269 27.8846 16.7418H27.8994V16.3969H29.3051V20.16H29.2903Z" fill="rgba(255, 255, 255, 0.8)"></path></svg>