<svg width="40" height="40" viewBox="0 0 40 40" fill="none" xmlns="http://www.w3.org/2000/svg">
  <path d="M19.997 16.4844C18.0951 16.4844 16.4785 18.101 16.4785 20.0029C16.4785 21.9048 18.0951 23.5214 19.997 23.5214C21.8989 23.5214 23.5156 21.9048 23.5156 20.0029C23.5156 18.101 21.8989 16.4844 19.997 16.4844Z" fill="rgba(255, 255, 255, 0.8)"></path>
  <path d="M24.511 9.4375H15.5867C12.1322 9.4375 9.44531 12.1244 9.44531 15.483V24.4072C9.44531 27.8617 12.1322 30.5486 15.5867 30.5486H24.511C27.8696 30.5486 30.5564 27.8617 30.5564 24.4072V15.483C30.5564 12.1244 27.8696 9.4375 24.511 9.4375ZM20.0009 25.5587C16.9302 25.5587 14.5312 23.0638 14.5312 20.089C14.5312 17.1143 16.9302 14.5234 20.0009 14.5234C23.0716 14.5234 25.4706 17.0183 25.4706 19.9931C25.4706 22.9678 23.0716 25.5587 20.0009 25.5587ZM25.6625 15.6749C24.9908 15.6749 24.415 15.0991 24.415 14.4274C24.415 13.7557 24.9908 13.1799 25.6625 13.1799C26.3342 13.1799 26.91 13.7557 26.91 14.4274C26.91 15.0991 26.3342 15.6749 25.6625 15.6749Z" fill="rgba(255, 255, 255, 0.8)"></path></svg>