<svg width="857" height="857" viewBox="0 0 857 857" fill="none" xmlns="http://www.w3.org/2000/svg">
  <rect x="344.876" y="259.766" width="230.881" height="230.884" rx="115.441" fill="#FF758E" fill-opacity="0.32"></rect>
  <rect x="380.095" y="294.985" width="160.443" height="160.443" rx="80.2215" fill="#D80027" fill-opacity="0.6"></rect>
  <rect x="473.068" y="364.696" width="87.0023" height="33.7397" rx="16.8699" fill="#113499"></rect>

  <g id="NATION_VT">
    <g clip-path="url(#clip0_1622_29961)">
    <path d="M492.635 391.349C498.038 391.349 502.418 386.969 502.418 381.566C502.418 376.163 498.038 371.783 492.635 371.783C487.232 371.783 482.852 376.163 482.852 381.566C482.852 386.969 487.232 391.349 492.635 391.349Z" fill="#D80027"></path>
    <path d="M492.635 376.888L493.691 380.137H497.107L494.343 382.145L495.399 385.395L492.635 383.387L489.871 385.395L490.926 382.145L488.162 380.137H491.579L492.635 376.888Z" fill="#FFDA44"></path>
    </g>
    <path d="M511.09 376.092V379.301H512.827V376.092H514.737V385.578H509.149V376.092H511.09ZM511.09 383.919H512.827V380.929H511.09V383.919ZM520.857 374.809V388.896H518.885V374.809H520.857ZM516.709 379.943V381.618H514.408V379.943H516.709ZM517.946 375.044V388.286H516.005V375.044H517.946ZM533.849 382.025V383.668H523.925V382.025H533.849ZM535.195 385.609V387.3H522.438V385.609H535.195ZM533.74 375.811V377.47H526.038V382.479H523.925V375.811H533.74ZM533.411 378.91V380.522H525.397V378.91H533.411ZM547.217 374.809V382.745H545.135V374.809H547.217ZM549.08 377.752V379.442H546.654V377.752H549.08ZM547.217 383.371V388.74H538.029V383.371H547.217ZM540.08 384.999V387.112H545.198V384.999H540.08ZM538.765 375.466V381.242H536.683V375.466H538.765ZM537.873 380.35C540.095 380.35 542.161 380.167 544.071 379.802L544.306 381.461C543.241 381.68 542.172 381.837 541.097 381.931C540.033 382.025 538.958 382.072 537.873 382.072H536.683V380.35H537.873Z" fill="white"></path>
    <path d="M511.352 419.72C511.352 422.602 513.688 424.938 516.57 424.938C519.451 424.938 521.787 422.602 521.787 419.72C521.787 416.839 519.451 414.503 516.57 414.503C513.688 414.503 511.352 416.839 511.352 419.72ZM517.548 419.72V394.284H515.591V419.72H517.548Z" fill="#113499"></path>
    <rect x="511.189" y="414.339" width="10.7614" height="10.7614" rx="5.38071" fill="#113499"></rect>
    <rect x="514.613" y="417.766" width="3.91324" height="3.91324" rx="1.95662" fill="white"></rect>
  </g>
  <g id="NATION_MM">
    <path d="M395.911 399.175C395.911 402.057 398.247 404.393 401.129 404.393C404.011 404.393 406.347 402.057 406.347 399.175C406.347 396.294 404.011 393.958 401.129 393.958C398.247 393.958 395.911 396.294 395.911 399.175ZM402.107 399.175V339.499H400.151V399.175H402.107Z" fill="#113499"></path>
    <rect x="395.748" y="393.795" width="10.7614" height="10.7614" rx="5.38071" fill="#113499"></rect>
    <rect x="399.172" y="397.222" width="3.91324" height="3.91324" rx="1.95662" fill="white"></rect>
    <rect x="357.628" y="331.434" width="87.0023" height="33.7397" rx="16.8699" fill="#113499"></rect>
    <g clip-path="url(#clip1_1622_29961)">
    <path d="M386.369 351.707C386.762 350.647 386.977 349.5 386.977 348.304C386.977 347.107 386.762 345.961 386.369 344.901L377.194 344.05L368.019 344.901C367.626 345.961 367.411 347.107 367.411 348.304C367.411 349.5 367.626 350.647 368.019 351.707L377.194 352.557L386.369 351.707Z" fill="#6DA544"></path>
    <path d="M386.369 344.901C384.986 341.175 381.4 338.521 377.194 338.521C372.988 338.521 369.402 341.175 368.019 344.901H386.369Z" fill="#FFDA44"></path>
    <path d="M377.194 358.087C381.4 358.087 384.986 355.432 386.369 351.707H368.019C369.402 355.432 372.988 358.087 377.194 358.087Z" fill="#D80027"></path>
    <path d="M383.903 346.797H378.778L377.194 341.923L375.61 346.797H370.485L374.632 349.81L373.048 354.684L377.194 351.706L381.34 354.684L379.757 349.81L383.903 346.797Z" fill="#F0F0F0"></path>
    </g>
    <path d="M400.783 342.798V352.3H393.99V342.798H400.783ZM396.04 344.442V350.656H398.748V344.442H396.04ZM405.009 341.53V355.665H402.928V341.53H405.009ZM419.88 343.831V345.522H417.47V343.831H419.88ZM419.88 347.197V348.903H417.47V347.197H419.88ZM418.096 341.546V351.783H415.998V341.546H418.096ZM418.597 353.74V355.399H408.986V353.74H418.597ZM411.067 350.719V354.475H408.986V350.719H411.067ZM410.911 342.438C411.631 342.438 412.283 342.595 412.868 342.908C413.452 343.21 413.911 343.638 414.245 344.191C414.589 344.734 414.762 345.35 414.762 346.038C414.762 346.717 414.589 347.332 414.245 347.886C413.911 348.428 413.452 348.856 412.868 349.169C412.283 349.472 411.631 349.623 410.911 349.623C410.201 349.623 409.549 349.472 408.954 349.169C408.37 348.856 407.911 348.428 407.577 347.886C407.243 347.332 407.076 346.717 407.076 346.038C407.076 345.35 407.243 344.734 407.577 344.191C407.911 343.638 408.37 343.21 408.954 342.908C409.549 342.595 410.201 342.438 410.911 342.438ZM410.911 344.254C410.567 344.254 410.259 344.327 409.987 344.473C409.716 344.609 409.502 344.812 409.346 345.084C409.189 345.355 409.111 345.673 409.111 346.038C409.111 346.393 409.189 346.706 409.346 346.978C409.513 347.249 409.732 347.458 410.003 347.604C410.274 347.739 410.577 347.807 410.911 347.807C411.255 347.807 411.563 347.739 411.834 347.604C412.116 347.458 412.335 347.254 412.492 346.993C412.648 346.722 412.727 346.404 412.727 346.038C412.727 345.673 412.648 345.355 412.492 345.084C412.335 344.812 412.116 344.609 411.834 344.473C411.563 344.327 411.255 344.254 410.911 344.254ZM427.863 342.861V352.237H421.101V342.861H427.863ZM423.152 344.504V350.578H425.813V344.504H423.152ZM431.745 341.562V355.649H429.648V341.562H431.745ZM433.749 346.837V348.559H431.276V346.837H433.749Z" fill="white"></path>
  </g>
  <g id="NATION_CD">
    <path d="M462.436 478.42C462.436 481.301 464.772 483.637 467.654 483.637C470.536 483.637 472.872 481.301 472.872 478.42C472.872 475.538 470.536 473.202 467.654 473.202C464.772 473.202 462.436 475.538 462.436 478.42ZM468.632 478.42L468.632 430.482L466.676 430.482L466.676 478.42L468.632 478.42Z" fill="#113499"></path>
    <rect x="417.76" y="467.659" width="99.7877" height="33.2626" rx="16.6313" fill="#113499"></rect>
    <g clip-path="url(#clip2_1622_29961)">
    <path d="M427.436 484.29C427.436 485.985 427.867 487.579 428.626 488.969L437.219 489.819L445.813 488.969C446.571 487.579 447.002 485.985 447.002 484.29C447.002 482.595 446.571 481.001 445.813 479.611L437.219 478.76L428.626 479.611C427.867 481.001 427.436 482.595 427.436 484.29V484.29Z" fill="#D80027"></path>
    <path d="M428.626 479.611H445.813C444.153 476.57 440.927 474.507 437.219 474.507C433.511 474.507 430.285 476.57 428.626 479.611Z" fill="#0052B4"></path>
    <path d="M437.219 494.073C440.927 494.073 444.153 492.01 445.813 488.969H428.626C430.285 492.01 433.511 494.073 437.219 494.073Z" fill="#0052B4"></path>
    <path d="M440.622 486.204V484.928H439.771V483.226L438.921 482.376L438.07 483.226V481.525L437.219 480.674L436.368 481.525V483.226L435.518 482.376L434.667 483.226V484.928H433.816V486.204H432.966V487.48H441.473V486.204H440.622Z" fill="#F0F0F0"></path>
    </g>
    <path d="M460.605 478.222C460.605 480.183 460.088 481.817 459.055 483.121C458.032 484.415 456.425 485.396 454.234 486.064L453.42 484.451C455.194 483.93 456.478 483.225 457.271 482.338C458.064 481.441 458.46 480.361 458.46 479.098V478.222H460.605ZM459.806 478.222V479.865H454.156V478.222H459.806ZM458.726 482.26L453.717 482.636L453.451 481.008L458.726 480.836V482.26ZM464.44 477.533V485.578H462.342V477.533H464.44ZM466.287 480.71V482.417H463.876V480.71H466.287ZM464.44 486.173V491.48H455.267V486.173H464.44ZM457.333 487.801V489.836H462.374V487.801H457.333ZM479.78 488.302V489.993H467.023V488.302H479.78ZM474.427 485.328V488.709H472.345V485.328H474.427ZM470.419 478.409V480.554H476.336V478.409H478.403V485.751H468.353V478.409H470.419ZM470.419 484.107H476.336V482.182H470.419V484.107ZM492.397 477.533V491.668H490.315V477.533H492.397ZM482.754 486.58C484.393 486.58 485.671 486.554 486.589 486.502C487.508 486.45 488.41 486.34 489.297 486.173L489.47 487.879C488.583 488.067 487.664 488.187 486.715 488.24C485.765 488.292 484.45 488.318 482.77 488.318H481.549V486.58H482.754ZM488.358 478.785V480.46H483.615V487.253H481.549V478.785H488.358ZM498.157 478.488C498.867 478.488 499.503 478.696 500.067 479.114C500.63 479.521 501.069 480.11 501.382 480.883C501.705 481.644 501.867 482.526 501.867 483.528C501.867 484.551 501.705 485.448 501.382 486.22C501.069 486.982 500.63 487.572 500.067 487.989C499.503 488.396 498.867 488.6 498.157 488.6C497.448 488.6 496.811 488.396 496.248 487.989C495.684 487.572 495.241 486.982 494.917 486.22C494.604 485.448 494.448 484.551 494.448 483.528C494.448 482.516 494.604 481.629 494.917 480.867C495.241 480.105 495.684 479.521 496.248 479.114C496.811 478.696 497.448 478.488 498.157 478.488ZM498.157 480.397C497.813 480.397 497.51 480.517 497.249 480.757C496.999 480.997 496.801 481.352 496.655 481.822C496.519 482.291 496.451 482.86 496.451 483.528C496.451 484.206 496.519 484.785 496.655 485.265C496.801 485.735 496.999 486.095 497.249 486.345C497.51 486.586 497.813 486.706 498.157 486.706C498.502 486.706 498.804 486.586 499.065 486.345C499.326 486.095 499.524 485.735 499.66 485.265C499.806 484.785 499.879 484.206 499.879 483.528C499.879 482.86 499.806 482.291 499.66 481.822C499.524 481.352 499.326 480.997 499.065 480.757C498.804 480.517 498.502 480.397 498.157 480.397ZM505.452 477.549V491.636H503.354V477.549H505.452ZM507.455 482.824V484.545H504.982V482.824H507.455Z" fill="white"></path>
    <rect x="462.273" y="428.037" width="10.7614" height="10.7614" rx="5.38071" fill="#113499"></rect>
    <rect x="465.697" y="431.458" width="3.91324" height="3.91324" rx="1.95662" fill="white"></rect>
  </g>
  <g id="NATION_KR">
    <path d="M562.224 358.086C562.224 360.968 564.56 363.304 567.442 363.304C570.323 363.304 572.659 360.968 572.659 358.086C572.659 355.205 570.323 352.868 567.442 352.868C564.56 352.868 562.224 355.205 562.224 358.086ZM568.42 358.086L568.42 310.149L566.463 310.149L566.463 358.086L568.42 358.086Z" fill="#113499"></path>
    <rect x="517.441" y="290.344" width="100.002" height="33.7397" rx="16.8699" fill="#113499"></rect>
    <g xmlns="http://www.w3.org/2000/svg" clip-path="url(#clip3_1622_29961)">
      <path d="M537.007 316.999C542.412 316.999 546.792 312.619 546.792 307.214C546.792 301.808 542.412 297.429 537.007 297.429C531.602 297.429 527.222 301.808 527.222 307.214C527.222 312.619 531.602 316.999 537.007 316.999Z" fill="#F0F0F0"></path>
      <path d="M531.977 304.673L534.468 302.182L533.914 301.629L531.424 304.119L531.977 304.673Z" fill="black"></path>
      <path d="M531.147 303.843L533.637 301.353L533.084 300.799L530.593 303.29L531.147 303.843Z" fill="black"></path>
      <path d="M530.316 303.013L532.807 300.522L532.253 299.969L529.763 302.46L530.316 303.013Z" fill="black"></path>
      <path d="M529.761 311.969L532.252 314.46L532.805 313.906L530.314 311.416L529.761 311.969Z" fill="black"></path>
      <path d="M530.59 311.14L531.697 312.247L532.251 311.693L531.144 310.586L530.59 311.14Z" fill="black"></path>
      <path d="M531.422 310.306L533.913 312.796L534.466 312.243L531.975 309.752L531.422 310.306Z" fill="black"></path>
      <path d="M531.976 312.519L533.083 313.626L533.637 313.072L532.529 311.965L531.976 312.519Z" fill="black"></path>
      <path d="M540.933 313.628L542.04 312.521L541.486 311.967L540.379 313.075L540.933 313.628Z" fill="black"></path>
      <path d="M542.314 312.245L543.421 311.138L542.868 310.584L541.761 311.691L542.314 312.245Z" fill="black"></path>
      <path d="M541.763 314.458L542.87 313.351L542.317 312.797L541.21 313.904L541.763 314.458Z" fill="black"></path>
      <path d="M543.145 313.075L544.252 311.968L543.698 311.414L542.591 312.521L543.145 313.075Z" fill="black"></path>
      <path d="M540.098 312.798L541.205 311.691L540.652 311.137L539.545 312.244L540.098 312.798Z" fill="black"></path>
      <path d="M541.484 311.415L542.591 310.308L542.037 309.755L540.93 310.862L541.484 311.415Z" fill="black"></path>
      <path d="M540.378 301.354L542.869 303.845L543.422 303.292L540.932 300.801L540.378 301.354Z" fill="black"></path>
      <path d="M539.547 302.184L540.654 303.292L541.207 302.738L540.1 301.631L539.547 302.184Z" fill="black"></path>
      <path d="M540.928 303.564L542.035 304.671L542.589 304.117L541.482 303.01L540.928 303.564Z" fill="black"></path>
      <path d="M541.208 300.525L542.315 301.632L542.868 301.078L541.761 299.971L541.208 300.525Z" fill="black"></path>
      <path d="M542.593 301.904L543.7 303.011L544.254 302.458L543.147 301.351L542.593 301.904Z" fill="black"></path>
      <path d="M538.212 303.902C536.385 303.237 534.361 304.18 533.696 306.008C533.363 306.924 533.833 307.934 534.748 308.266C535.664 308.599 536.674 308.129 537.007 307.214C537.34 306.298 538.349 305.828 539.265 306.161C540.181 306.493 540.651 307.503 540.318 308.419C540.984 306.591 540.04 304.568 538.212 303.902Z" fill="#D80027"></path>
      <path d="M539.265 306.161C538.349 305.828 537.34 306.298 537.007 307.214C536.674 308.13 535.664 308.599 534.748 308.267C533.833 307.934 533.363 306.924 533.696 306.008C533.03 307.836 533.974 309.86 535.801 310.525C537.629 311.19 539.653 310.247 540.318 308.419C540.651 307.503 540.181 306.494 539.265 306.161Z" fill="#0052B4"></path>
      </g>
    <path d="M565.229 300.457V314.544H563.241V300.457H565.229ZM563.726 305.857V307.547H561.41V305.857H563.726ZM562.036 300.707V313.871H560.111V300.707H562.036ZM554.507 309.692C555.467 309.692 556.317 309.666 557.058 309.614C557.799 309.562 558.556 309.468 559.328 309.332L559.5 311.022C558.697 311.179 557.914 311.283 557.152 311.336C556.39 311.377 555.509 311.398 554.507 311.398H553.521V309.692H554.507ZM558.702 302.085V303.759H555.571V310.506H553.521V302.085H558.702ZM577.908 300.472V310.991H575.811V300.472H577.908ZM579.755 304.73V306.452H577.329V304.73H579.755ZM575.091 301.912V303.54H566.81V301.912H575.091ZM570.959 304.026C571.626 304.026 572.221 304.14 572.743 304.37C573.275 304.6 573.687 304.923 573.98 305.34C574.282 305.747 574.433 306.217 574.433 306.749C574.433 307.281 574.282 307.756 573.98 308.174C573.687 308.591 573.275 308.915 572.743 309.144C572.221 309.363 571.626 309.473 570.959 309.473C570.291 309.473 569.691 309.363 569.158 309.144C568.637 308.915 568.224 308.591 567.922 308.174C567.63 307.756 567.484 307.281 567.484 306.749C567.484 306.217 567.63 305.747 567.922 305.34C568.224 304.923 568.637 304.6 569.158 304.37C569.691 304.14 570.291 304.026 570.959 304.026ZM570.959 305.607C570.51 305.607 570.15 305.706 569.878 305.904C569.618 306.102 569.487 306.384 569.487 306.749C569.487 307.114 569.618 307.396 569.878 307.594C570.15 307.793 570.51 307.892 570.959 307.892C571.397 307.892 571.746 307.793 572.007 307.594C572.279 307.396 572.414 307.114 572.414 306.749C572.414 306.384 572.279 306.102 572.007 305.904C571.746 305.706 571.397 305.607 570.959 305.607ZM571.992 300.441V302.695H569.91V300.441H571.992ZM578.409 312.65V314.31H568.798V312.65H578.409ZM570.88 310.193V313.37H568.798V310.193H570.88ZM588.036 301.552V308.408H581.196V301.552H588.036ZM583.246 303.196V306.749H586.001V303.196H583.246ZM592.2 300.472V310.475H590.118V300.472H592.2ZM592.56 312.603V314.263H582.793V312.603H592.56ZM584.89 309.567V313.339H582.793V309.567H584.89ZM604.644 301.067V302.726H595.738V301.067H604.644ZM606.93 305.904V307.563H594.173V305.904H606.93ZM601.576 307.078V310.005H599.495V307.078H601.576ZM605.443 301.067V302.194C605.443 303.039 605.417 303.796 605.364 304.464C605.323 305.121 605.203 305.857 605.004 306.671L602.97 306.483C603.157 305.68 603.272 304.97 603.314 304.354C603.366 303.728 603.392 303.008 603.392 302.194V301.067H605.443ZM605.458 309.504V314.56H603.377V311.148H595.456V309.504H605.458Z" fill="white"></path>
    <rect x="562.061" y="352.706" width="10.7614" height="10.7614" rx="5.38071" fill="#113499"></rect>
    <rect x="565.485" y="356.127" width="3.91324" height="3.91324" rx="1.95662" fill="white"></rect>
  </g>

  <defs>
    <clipPath id="clip0_1622_29961">
    <rect width="19.5662" height="19.5662" fill="white" transform="translate(482.852 371.783)"></rect>
    </clipPath>
    <clipPath id="clip1_1622_29961">
    <rect x="367.411" y="338.521" width="19.5662" height="19.5662" rx="9.7831" fill="white"></rect>
    </clipPath>
    <clipPath id="clip2_1622_29961">
    <rect width="19.5662" height="19.5662" fill="white" transform="translate(427.436 474.507)"></rect>
    </clipPath>
    <clipPath id="clip3_1622_29961">
      <rect width="19.57" height="19.57" fill="white" transform="translate(527.222 297.429)"></rect>
    </clipPath>
  </defs>
</svg>