<svg width="40" height="40" viewBox="0 0 40 40" fill="none" xmlns="http://www.w3.org/2000/svg">
  <path fill-rule="evenodd" clip-rule="evenodd" d="M29.5605 11.8905C30.6126 12.1708 31.4405 13.003 31.7208 14.0637C32.2296 15.9825 32.2253 19.984 32.2253 19.984C32.2253 19.984 32.2253 23.9855 31.7165 25.9043C31.4362 26.9607 30.6083 27.7929 29.5562 28.0775C27.6503 28.5907 20.0052 28.5907 20.0052 28.5907C20.0052 28.5907 12.3601 28.5907 10.4543 28.0775C9.40214 27.7973 8.57424 26.9651 8.29397 25.9043C7.78516 23.9855 7.78516 19.984 7.78516 19.984C7.78516 19.984 7.78516 15.9825 8.29828 14.0594C8.57856 13.003 9.40645 12.1708 10.4586 11.8862C12.3644 11.373 20.0095 11.373 20.0095 11.373C20.0095 11.373 27.6503 11.373 29.5605 11.8905ZM23.8981 19.9924L17.5078 16.3574V23.6274L23.8981 19.9924Z" fill="#0A31A8"></path></svg>